<svg width="212" height="100" viewBox="0 0 212 100" fill="none" xmlns="http://www.w3.org/2000/svg">
<path d="M96.3055 59.3706C94.21 62.0903 90.554 64.6316 85.605 64.6316H81.5477V36.7211C81.5477 35.116 81.8598 34.4918 82.5286 34.0906C82.5286 34.0014 82.5286 33.7339 82.5286 33.7339H77C77 33.7339 77 34.0014 77 34.0906C77.7134 34.4918 78.0255 35.116 78.0255 36.7211V62.0011C78.0255 63.5616 77.7134 64.2304 77 64.6316C77 64.7208 77 64.9437 77 64.9437H95.5922L96.573 59.5489L96.3055 59.3706Z" fill="white"/>
<path d="M114.034 44.8803C108.516 44.8803 103.918 49.3388 103.918 54.8563C103.918 60.3459 108.516 64.8323 114.034 64.8323C119.551 64.8323 124.149 60.3459 124.149 54.8563C124.149 49.3388 119.551 44.8803 114.034 44.8803ZM116.876 64.1635C112.223 65.5847 108.098 62.0457 106.594 57.1134C105.089 52.209 106.538 46.9702 111.191 45.549C115.845 44.1279 119.969 47.6669 121.474 52.5713C122.979 57.5035 121.53 62.7423 116.876 64.1635Z" fill="white"/>
<path d="M144.356 45.1589C144.356 45.1589 144.356 45.3261 144.356 45.3819C145.721 45.5769 146.446 47.2767 146.446 48.8094V58.1166C146.446 61.2376 144.356 64.2192 140.928 64.4979C136.888 64.8323 134.519 62.0457 134.519 57.4478V47.0259C134.519 46.0228 134.714 45.6326 135.132 45.3819C135.132 45.3261 135.132 45.1589 135.132 45.1589H131.677C131.677 45.1589 131.677 45.3261 131.677 45.3819C132.122 45.6326 132.318 46.0228 132.318 47.0259V57.4478C132.318 62.5194 135.801 64.8323 139.953 64.8323C143.882 64.8323 146.641 61.99 146.641 58.1166V48.5028C146.641 47.3046 146.919 45.8556 147.811 45.3819C147.811 45.3261 147.811 45.1589 147.811 45.1589H144.356Z" fill="white"/>
<path d="M171.258 45.3819V45.1589H167.942V45.3819C169.14 46.6358 169.001 48.0012 168.109 50.5092L164.041 61.99L159.08 49.1159C158.3 47.0817 158.077 46.1064 158.774 45.3819V45.1589H154.51V45.3819C155.541 46.6358 156.572 48.3635 157.408 50.5092C158.244 52.6827 162.87 64.6651 162.87 64.6651H165.072L164.152 62.2686L168.332 50.5092C169.251 47.9177 170.06 46.6358 171.258 45.3819Z" fill="white"/>
<path d="M189.485 59.6771L186.977 55.2743C189.763 54.6333 191.853 53.045 191.853 50.4256C191.853 46.7751 187.952 45.1589 183.633 45.1589H178.227C178.227 45.1589 178.227 45.3261 178.227 45.3819C178.645 45.6326 178.84 46.0228 178.84 47.0259V62.8259C178.84 63.8012 178.645 64.2192 178.227 64.47C178.227 64.5258 178.227 64.6651 178.227 64.6651H181.654C181.654 64.6651 181.654 64.5258 181.654 64.47C181.236 64.2192 181.041 63.8012 181.041 62.8259V55.6644H183.633C184.051 55.6644 184.469 55.6365 184.887 55.6087L187.869 60.8196C188.955 62.7423 189.54 63.7455 188.816 64.47V64.6651H193.107V64.47C192.021 63.4947 191.129 62.5473 189.485 59.6771ZM183.633 55.4415H181.041V45.3819H183.633C188.927 45.3819 189.652 48.252 189.652 50.4256C189.652 52.5713 188.9 55.4415 183.633 55.4415Z" fill="white"/>
<path d="M211.833 61.1818C210.523 62.8817 208.21 64.47 205.145 64.47H202.888V53.8252L209.91 54.4104V52.9893L202.888 53.6023V45.3819H204.838C207.932 45.3819 209.659 46.9145 210.941 48.3635L211.08 48.252L210.495 45.1589H200.073C200.073 45.1589 200.073 45.3261 200.073 45.3819C200.491 45.6326 200.686 46.0506 200.686 47.0259V62.8259C200.686 63.8012 200.491 64.2192 200.073 64.47C200.073 64.5258 200.073 64.6651 200.073 64.6651H211.387L212 61.2933L211.833 61.1818Z" fill="white"/>
<path d="M57.8854 63.7401C57.8621 63.5896 57.8077 63.447 57.7202 63.3321L29.4551 26.2232C29.4512 26.2179 29.4474 26.2153 29.4435 26.2113C29.4211 26.1836 29.3978 26.1585 29.3735 26.1373C29.3687 26.1321 29.3638 26.1268 29.358 26.1215C29.3317 26.099 29.3055 26.0806 29.2764 26.0634C29.2735 26.0621 29.2696 26.0607 29.2667 26.0594C29.2579 26.0541 29.2482 26.0515 29.2385 26.0462C29.2152 26.0357 29.1909 26.0264 29.1666 26.0185C29.1559 26.0158 29.1462 26.0132 29.1355 26.0106C29.1083 26.0053 29.0811 26.0026 29.0549 26.0013C29.0481 26.0013 29.0413 26 29.0345 26C29.0005 26.0013 28.9675 26.0066 28.9344 26.0158C28.9267 26.0185 28.9189 26.0211 28.9121 26.0238C28.8868 26.0317 28.8616 26.0423 28.8373 26.0555C28.8276 26.0607 28.8169 26.066 28.8072 26.0726C28.7829 26.0872 28.7596 26.1056 28.7363 26.1255C28.7295 26.1307 28.7227 26.136 28.7168 26.1413C28.6916 26.1651 28.6673 26.1915 28.6449 26.2205L0.278804 63.4615C0.239946 63.5117 0.209832 63.5698 0.184574 63.6292C0.0709153 63.7745 0 63.9792 0 64.2076C0 64.6448 0.261318 65 0.582866 65H7.19645H24.0112H57.4171C57.7387 65 58 64.6448 58 64.2076C58 64.0333 57.9573 63.8722 57.8854 63.7401ZM26.261 31.5544L28.4711 28.6531L28.4808 32.2385L26.261 35.1293V31.5544ZM26.261 37.3255L28.4866 34.4268L28.4953 37.6411L26.262 40.5504V37.3255H26.261ZM26.261 42.7452L28.5002 39.828L28.5089 43.0424L26.261 45.9701V42.7452ZM26.261 48.165L28.5148 45.2293L28.5235 48.4476C28.5167 48.4555 28.5099 48.4608 28.5031 48.4687L26.261 51.3886V48.165ZM26.261 53.5834L28.5284 50.6292L28.5371 53.8462C28.5322 53.8515 28.5274 53.8554 28.5225 53.862L26.261 56.8083V53.5834ZM17.9464 42.4705L20.9385 38.5431V42.0638L17.9464 45.9609V42.4705ZM17.9464 48.1557L20.9385 44.2586V47.4835L17.9464 51.3806V48.1557ZM17.9464 53.5755L20.9385 49.6784V52.9033L19.8417 54.3322H17.9464V53.5755ZM13.7896 47.9286L16.7817 44.0011V47.4783L13.7896 51.3754V47.9286ZM13.7896 53.5702L16.7817 49.6731V52.898L15.681 54.3309H14.1714C14.0306 54.3309 13.8955 54.4022 13.7896 54.5276V53.5702ZM9.63186 53.3866L12.6239 49.4592V52.894L9.63186 56.7911V53.3866ZM9.63186 58.986L12.6239 55.0889V56.0424L9.63186 59.9395V58.986ZM4.30932 63.4179H1.99243L4.30932 60.3766V63.4179ZM8.46613 61.4568L6.96136 63.4166H6.22986L8.46613 60.5034V61.4568ZM8.46613 58.3098L5.47408 62.2069V58.8843C5.47408 58.8724 5.47311 58.8605 5.47311 58.8473L8.46613 54.9185V58.3098ZM23.4273 57.2745V60.4994V62.6942V63.4166H22.8726H22.1042H21.1881H20.9385H18.7119H17.9464H17.0265H16.7807H14.5512H13.7896H12.8668H12.6239H10.3906H9.63186H8.7051H8.64584L9.63186 62.133L12.6239 58.2359L13.7896 56.7172L14.4055 55.9156H14.4648H16.1502H16.7817H17.9474H18.6255H20.3109H20.9395H22.1052H22.7871H23.4293V57.2745H23.4273ZM25.0953 63.4179H24.5931V61.1769L25.0953 60.5232V63.4179ZM25.0953 58.327L24.5931 58.9807V55.7558L25.0953 55.1021V58.327ZM25.0953 52.9073L24.0024 54.3309H22.1042V53.5781L25.0963 49.681V52.9073H25.0953ZM25.0953 47.4875L22.1032 51.3846V48.1597L25.0953 44.2626V47.4875ZM25.0953 42.0678L22.1032 45.9649V42.7399L25.0953 38.8428V42.0678ZM25.0953 36.6493L22.1032 40.5464V37.0125L25.0953 33.085V36.6493ZM26.261 59.0031L28.5429 56.0318L28.5517 59.2488C28.5478 59.2527 28.5439 59.2554 28.541 59.2607L26.262 62.2294V59.0031H26.261ZM27.0333 63.4179L28.5565 61.4331L28.5614 63.4179H27.0333ZM29.7281 63.4179L29.7232 61.6734L31.0619 63.4179H29.7281ZM31.8342 62.2281L29.7174 59.4706L29.7087 56.2352L31.8342 59.0031V62.2281ZM31.8342 56.8083L29.7028 54.0324L29.6941 50.7969L31.8332 53.5834V56.8083H31.8342ZM31.8342 51.3886L29.6892 48.5942L29.6805 45.3587L31.8342 48.1637V51.3886ZM31.8342 45.9701L29.6747 43.1573L29.6659 39.9218L31.8332 42.7452V45.9701H31.8342ZM31.8342 40.5504L29.6611 37.719L29.6523 34.4835L31.8342 37.3255V40.5504ZM31.8342 35.1306L29.6465 32.2808L29.6368 28.6663L31.8342 31.5505V35.1306ZM32.9999 63.4179V60.5218L35.2226 63.4179H32.9999ZM35.992 62.2241L32.9999 58.327V55.1021L35.992 58.9992V62.2241ZM35.992 56.8043L32.9999 52.9073V49.6823L35.992 53.5794V56.8043ZM35.992 51.3846L32.9999 47.4875V44.2626L35.992 48.1597V51.3846ZM35.992 45.9649L32.9999 42.0678V38.8442L35.992 42.7413V45.9649ZM35.992 40.5451L32.9999 36.648V33.0811L35.992 37.0085V40.5451ZM37.1577 63.4179V60.5179L39.3842 63.4179H37.1577ZM40.1497 62.2201L37.1577 58.323V55.0981L40.1497 58.9952V62.2201ZM40.1497 56.8004L37.1577 52.9033V49.6784L40.1497 53.5755V56.8004ZM40.1497 51.3806L37.1577 47.4835V44.2586L40.1497 48.1557V51.3806ZM40.1497 45.9609L37.1577 42.0638V38.5391L40.1497 42.4666V45.9609ZM41.3155 63.4179V60.5139L43.5449 63.4179H41.3155ZM44.3065 62.2149L41.3145 58.3178V55.0928L44.3065 58.9899V62.2149ZM44.3065 56.7951L41.3145 52.898V49.6731L44.3065 53.5702V56.7951ZM44.3065 51.3754L41.3145 47.4783V43.9958L44.3065 47.9233V51.3754ZM45.4723 63.4179V60.5086L47.7056 63.4179H45.4723ZM48.4643 62.2109L45.4723 58.3138V55.0889L48.4643 58.986V62.2109ZM48.4643 56.7911L45.4723 52.894V49.4552L48.4643 53.3827V56.7911ZM49.6301 63.4179V60.5047L51.8663 63.4179H49.6301ZM52.6211 58.883V62.2056L49.6291 58.3085V54.9119L52.6221 58.842C52.6221 58.8566 52.6211 58.8698 52.6211 58.883ZM53.7869 63.4179V60.3713L56.1067 63.4179H53.7869Z" fill="white"/>
</svg>
